PathFileType	4	(X/Y/Z)	 s10c0202.trc
DataRate	CameraRate	NumFrames	NumMarkers	Units	OrigDataRate	OrigDataStartFrame	OrigNumFrames
200	200	4	50	mm	200	1751	2000
Frame#	Time	racr			lacr			c7			jug			rlel			rdr			llel			ldr			s2			lic			ric			lasi			rasi			rpsi			lpsi			rgt			lgt			rth1			rth2			rth3			rth4			rlfc			rmfc			rsh1			rsh2			rsh3			rsh4			rlmal			rmmal			rcal			rtoe			rmt5			lth1			lth2			lth4			lth3			llfc			lmfc			llmal			lmmal			lcal			lmt5			lsh1			lsh2			lsh3			lsh4			ltoe			SBIKE			LBIKE			RBIKE			
		X1	Y1	Z1	X2	Y2	Z2	X3	Y3	Z3	X4	Y4	Z4	X5	Y5	Z5	X6	Y6	Z6	X7	Y7	Z7	X8	Y8	Z8	X9	Y9	Z9	X10	Y10	Z10	X11	Y11	Z11	X12	Y12	Z12	X13	Y13	Z13	X14	Y14	Z14	X15	Y15	Z15	X16	Y16	Z16	X17	Y17	Z17	X18	Y18	Z18	X19	Y19	Z19	X20	Y20	Z20	X21	Y21	Z21	X22	Y22	Z22	X23	Y23	Z23	X24	Y24	Z24	X25	Y25	Z25	X26	Y26	Z26	X27	Y27	Z27	X28	Y28	Z28	X29	Y29	Z29	X30	Y30	Z30	X31	Y31	Z31	X32	Y32	Z32	X33	Y33	Z33	X34	Y34	Z34	X35	Y35	Z35	X36	Y36	Z36	X37	Y37	Z37	X38	Y38	Z38	X39	Y39	Z39	X40	Y40	Z40	X41	Y41	Z41	X42	Y42	Z42	X43	Y43	Z43	X44	Y44	Z44	X45	Y45	Z45	X46	Y46	Z46	X47	Y47	Z47	X48	Y48	Z48	X49	Y49	Z49	X50	Y50	Z50	
1751	8.7550	449.495267	1264.956091	-92.360046	439.252616	1317.380848	-353.920217	404.012797	1322.280468	-223.853263	391.652460	1175.658090	-240.174828	442.364009	1041.435095	55.980712	606.858734	911.476288	3.035218	477.488959	1061.126978	-468.332344	634.157867	909.392208	-392.904121	-102.751000	1108.160504	-209.467573	44.697935	1146.441827	-360.072660	78.103321	1117.943520	-74.532593	87.154461	1053.390371	-338.551994	78.782537	1043.115067	-80.475512	-70.813195	1168.728519	-145.568837	-61.560953	1177.712032	-256.359094	-37.650965	1012.800987	-24.101114	-21.075153	1006.617615	-400.990408	45.020990	886.094895	6.304167	120.159578	838.725792	-1.226865	158.971843	762.790071	-7.260693	146.197107	865.063281	-4.550267	226.668784	674.623590	-21.217570	228.035208	674.762133	-139.030960	135.072284	599.445290	-3.527165	96.892814	522.232450	-26.374149	26.369261	474.360059	-38.597755	123.036773	507.129767	-50.695332	-44.940527	401.037628	-64.831623	-4.487702	400.905370	-139.157791	-92.479703	410.337498	-116.589196	93.540308	255.824537	-92.399170	5.368224	282.173270	-38.974078	92.466929	931.285664	-409.711125	176.541059	917.965192	-392.193603	188.774521	949.212720	-377.235715	246.093334	862.353764	-388.407361	349.099262	803.876788	-360.703125	352.230730	787.960684	-243.435750	224.774207	439.994483	-369.619503	236.794348	444.676936	-288.238234	168.751767	402.947430	-330.497615	344.662088	359.387237	-385.524032	291.369932	693.213894	-393.119061	295.997371	605.441462	-383.751812	253.780380	527.416969	-383.507033	323.300144	601.246988	-357.340333	422.075103	395.451673	-324.971409	-204.506733	832.844263	-224.045417	-78.195438	81.751260	-423.585009	-102.466350	80.474193	-24.153469	
1752	8.7600	448.459580	1265.918121	-91.846346	439.899085	1317.546092	-353.422890	403.678327	1322.517101	-223.030677	392.090452	1175.788370	-239.174955	442.260572	1041.594523	55.976122	606.698764	911.539188	2.939897	478.092851	1061.642116	-467.980392	634.171252	909.249459	-393.075907	-104.422797	1105.541462	-207.641357	44.364067	1144.989960	-361.812809	78.210626	1117.983082	-75.006215	87.459712	1052.266149	-339.141459	79.135044	1043.069072	-81.200121	-70.357882	1165.895884	-144.941700	-61.949201	1176.542998	-256.238630	-35.711428	1012.744794	-23.631813	-22.959902	1003.378271	-399.977386	49.863946	888.098426	6.521187	125.509515	841.763325	-2.263869	165.365847	766.324575	-8.302775	151.068083	868.447118	-6.514827	233.842209	678.472794	-23.201660	230.933576	678.438188	-141.119798	141.424135	605.270853	-4.218323	101.056578	529.314415	-27.138288	29.126052	483.258944	-38.617844	127.077345	514.663701	-51.608180	-44.951254	412.266303	-64.464266	-5.196261	411.635540	-139.309313	-92.629719	422.273284	-115.982367	91.391194	265.152740	-92.717058	3.729116	292.655075	-39.019279	90.778592	925.385208	-409.806289	174.502533	909.583127	-393.070422	187.937139	940.743481	-378.946552	242.336188	851.874852	-389.226851	344.024951	789.763006	-362.412730	348.730805	774.048707	-246.705432	226.331365	426.858632	-370.066949	238.827465	432.396724	-287.507852	170.660140	389.448582	-330.001968	346.549245	348.281369	-385.449395	288.152425	677.774599	-394.270475	294.431660	590.311199	-383.559849	253.945737	510.927345	-383.696193	321.284290	587.011866	-356.578361	423.474698	385.679383	-325.016116	-204.510850	832.820390	-223.863401	-78.206269	81.733626	-423.610615	-102.502062	80.458860	-24.188875	
1753	8.7650	447.404613	1266.900111	-90.869034	440.347780	1317.285854	-352.227172	403.490784	1322.944140	-222.048187	391.458482	1176.169519	-237.656856	442.111533	1041.759755	56.020226	606.545846	911.582052	2.856845	478.636776	1062.032615	-467.664677	634.122726	909.101858	-393.180766	-104.809763	1104.303211	-206.662448	43.811801	1143.013942	-363.370102	78.277587	1118.024181	-75.678831	87.858287	1051.118410	-339.778688	79.516282	1042.843300	-81.993963	-68.596562	1164.718006	-145.476379	-62.393135	1175.049557	-256.211977	-33.700868	1012.566885	-23.189744	-25.004848	999.818926	-398.857869	54.655714	889.888208	6.499470	130.941732	844.554504	-3.521701	171.757641	769.739179	-9.502529	156.050955	871.777035	-9.007044	241.065776	682.408908	-25.269601	233.760183	682.487075	-143.064899	147.959563	611.503115	-4.879407	105.526742	536.638995	-27.878017	32.511890	492.169315	-38.486793	130.484796	521.581722	-53.227709	-44.187197	423.603761	-63.961357	-5.577935	422.398732	-139.394056	-92.010464	434.304731	-115.351461	89.909062	274.657886	-92.960381	2.732028	303.234893	-38.993696	89.796316	919.545488	-410.472821	172.468491	901.044224	-393.895776	187.058775	932.107531	-381.059941	238.439148	841.430607	-389.775760	338.652613	775.549994	-363.919449	343.955073	761.404379	-249.706044	227.219756	414.274273	-370.181452	239.313122	419.795901	-287.487668	171.766429	376.951736	-330.080760	347.740415	337.204129	-385.484831	284.508610	663.409263	-394.864913	292.948791	576.445387	-382.903850	254.697623	496.137202	-383.170086	319.336319	574.461819	-355.623769	424.323269	375.727437	-325.059545	-204.519357	832.815037	-223.881322	-78.205956	81.750743	-423.622640	-102.536536	80.480523	-24.224711	
1754	8.7700	446.092012	1268.012735	-89.799664	441.078048	1317.399437	-352.100002	403.075616	1323.172403	-221.081505	391.869600	1176.262003	-236.244967	441.813640	1041.871601	56.141088	606.414442	911.620066	2.763762	479.203165	1062.317296	-467.445907	634.041175	908.962430	-393.275226	-105.244859	1102.675465	-205.802593	43.245642	1140.780719	-364.772228	78.182315	1117.843617	-76.238617	88.430055	1049.965317	-340.524993	79.993825	1042.451659	-82.824136	-66.992638	1163.200859	-146.159729	-62.808010	1173.255753	-256.406107	-31.532327	1011.959877	-22.807148	-26.596288	995.651718	-398.164699	59.428408	891.542861	6.275297	136.301999	847.295915	-4.691494	178.120768	773.142192	-10.782441	160.847790	875.043978	-11.103821	248.500894	686.586835	-27.297954	236.892628	686.175849	-144.969168	154.577256	617.839831	-5.601216	110.316099	544.053410	-28.515776	36.153780	501.310636	-38.384339	134.026831	528.439037	-54.492749	-42.557753	434.741748	-63.377426	-6.401107	432.498872	-139.058679	-90.466649	446.374660	-114.552071	89.068700	283.963387	-93.288406	2.545562	313.767855	-38.871209	88.127044	913.134758	-410.400748	170.430002	892.368316	-394.668031	186.198702	923.287972	-382.792098	234.544260	830.778601	-389.949067	332.992881	761.660674	-365.349016	337.614908	751.585828	-250.865110	227.178855	402.013782	-370.181111	239.338474	407.785011	-287.675467	171.993127	364.204146	-329.836430	348.311845	326.190079	-385.298549	280.127937	652.215817	-395.340886	291.015634	565.698353	-383.121227	254.718294	484.384119	-382.143961	317.568119	564.722711	-356.018189	424.529572	365.435992	-324.976005	-204.541786	832.795758	-223.931284	-78.197092	81.740357	-423.617561	-102.553316	80.485482	-24.259981	
